<svg xmlns="http://www.w3.org/2000/svg" viewBox="0 0 800 450" fill="none">
  <defs>
    <linearGradient id="bg" x1="0" y1="0" x2="800" y2="450" gradientUnits="userSpaceOnUse">
      <stop offset="0%" stop-color="#0C0C1D"/><stop offset="100%" stop-color="#111128"/>
    </linearGradient>
    <radialGradient id="glow" cx="400" cy="225" r="260" gradientUnits="userSpaceOnUse">
      <stop offset="0%" stop-color="#E8B84D" stop-opacity="0.08"/><stop offset="100%" stop-color="#72C4B2" stop-opacity="0"/>
    </radialGradient>
  </defs>
  <rect width="800" height="450" fill="url(#bg)"/><rect width="800" height="450" fill="url(#glow)"/>
  <!-- Learning modules stacked -->
  <rect x="220" y="70" width="360" height="50" rx="10" fill="#161636" stroke="#E8B84D" stroke-opacity="0.2" stroke-width="1"/>
  <rect x="240" y="85" width="80" height="6" rx="3" fill="#E8B84D" fill-opacity="0.25"/>
  <rect x="340" y="85" width="120" height="6" rx="3" fill="#72C4B2" fill-opacity="0.15"/>
  <circle cx="555" cy="95" r="10" fill="#72C4B2" fill-opacity="0.12" stroke="#72C4B2" stroke-opacity="0.2" stroke-width="0.5"/>
  <rect x="220" y="130" width="360" height="50" rx="10" fill="#161636" stroke="#72C4B2" stroke-opacity="0.2" stroke-width="1"/>
  <rect x="240" y="145" width="100" height="6" rx="3" fill="#72C4B2" fill-opacity="0.25"/>
  <rect x="360" y="145" width="80" height="6" rx="3" fill="#E8B84D" fill-opacity="0.12"/>
  <circle cx="555" cy="155" r="10" fill="#E8B84D" fill-opacity="0.12" stroke="#E8B84D" stroke-opacity="0.2" stroke-width="0.5"/>
  <rect x="220" y="190" width="360" height="50" rx="10" fill="#161636" stroke="#E8B84D" stroke-opacity="0.15" stroke-width="1"/>
  <rect x="240" y="205" width="90" height="6" rx="3" fill="#E8B84D" fill-opacity="0.2"/>
  <rect x="350" y="205" width="110" height="6" rx="3" fill="#72C4B2" fill-opacity="0.12"/>
  <rect x="220" y="250" width="360" height="50" rx="10" fill="#161636" stroke="#72C4B2" stroke-opacity="0.15" stroke-width="1"/>
  <rect x="240" y="265" width="110" height="6" rx="3" fill="#72C4B2" fill-opacity="0.2"/>
  <rect x="370" y="265" width="90" height="6" rx="3" fill="#E8B84D" fill-opacity="0.1"/>
  <!-- Progress bar -->
  <rect x="220" y="330" width="360" height="6" rx="3" fill="#0C0C1D"/>
  <rect x="220" y="330" width="240" height="6" rx="3" fill="url(#glow2)" opacity="0.8"/>
  <defs><linearGradient id="glow2" x1="220" y1="0" x2="460" y2="0" gradientUnits="userSpaceOnUse">
    <stop offset="0%" stop-color="#E8B84D"/><stop offset="100%" stop-color="#72C4B2"/>
  </linearGradient></defs>
  <!-- Cert badge -->
  <circle cx="400" cy="390" r="22" fill="#161636" stroke="#E8B84D" stroke-opacity="0.3" stroke-width="1.5"/>
  <path d="M390 390 L397 397 L413 381" stroke="#E8B84D" stroke-opacity="0.5" stroke-width="2" stroke-linecap="round" stroke-linejoin="round" fill="none"/>
  <circle cx="120" cy="120" r="2" fill="#E8B84D" fill-opacity="0.2"/>
  <circle cx="700" cy="100" r="2.5" fill="#72C4B2" fill-opacity="0.15"/>
</svg>
