<svg xmlns="http://www.w3.org/2000/svg" viewBox="0 0 800 450" fill="none">
  <defs>
    <linearGradient id="bg" x1="0" y1="0" x2="800" y2="450" gradientUnits="userSpaceOnUse">
      <stop offset="0%" stop-color="#0C0C1D"/><stop offset="100%" stop-color="#111128"/>
    </linearGradient>
    <radialGradient id="glow" cx="400" cy="225" r="280" gradientUnits="userSpaceOnUse">
      <stop offset="0%" stop-color="#E8B84D" stop-opacity="0.08"/><stop offset="100%" stop-color="#4A6CB8" stop-opacity="0"/>
    </radialGradient>
  </defs>
  <rect width="800" height="450" fill="url(#bg)"/><rect width="800" height="450" fill="url(#glow)"/>
  <!-- Kanban board -->
  <rect x="140" y="80" width="520" height="290" rx="14" fill="#161636" stroke="#E8B84D" stroke-opacity="0.1" stroke-width="1"/>
  <!-- Column headers -->
  <rect x="160" y="100" width="140" height="24" rx="6" fill="#E8B84D" fill-opacity="0.08"/>
  <rect x="175" y="107" width="50" height="5" rx="2.5" fill="#E8B84D" fill-opacity="0.3"/>
  <rect x="320" y="100" width="160" height="24" rx="6" fill="#4A6CB8" fill-opacity="0.08"/>
  <rect x="335" y="107" width="60" height="5" rx="2.5" fill="#4A6CB8" fill-opacity="0.3"/>
  <rect x="500" y="100" width="140" height="24" rx="6" fill="#72C4B2" fill-opacity="0.08"/>
  <rect x="515" y="107" width="40" height="5" rx="2.5" fill="#72C4B2" fill-opacity="0.3"/>
  <!-- Column 1 cards -->
  <rect x="160" y="140" width="140" height="55" rx="8" fill="#0C0C1D" stroke="#E8B84D" stroke-opacity="0.08" stroke-width="0.5"/>
  <rect x="175" y="152" width="90" height="5" rx="2.5" fill="#E8B84D" fill-opacity="0.2"/><rect x="175" y="164" width="60" height="4" rx="2" fill="#3A589E" fill-opacity="0.1"/>
  <rect x="175" y="176" width="25" height="10" rx="5" fill="#E8B84D" fill-opacity="0.1"/>
  <rect x="160" y="205" width="140" height="55" rx="8" fill="#0C0C1D" stroke="#E8B84D" stroke-opacity="0.08" stroke-width="0.5"/>
  <rect x="175" y="217" width="100" height="5" rx="2.5" fill="#E8B84D" fill-opacity="0.15"/><rect x="175" y="229" width="70" height="4" rx="2" fill="#3A589E" fill-opacity="0.08"/>
  <rect x="160" y="270" width="140" height="55" rx="8" fill="#0C0C1D" stroke="#E8B84D" stroke-opacity="0.06" stroke-width="0.5"/>
  <rect x="175" y="282" width="80" height="5" rx="2.5" fill="#E8B84D" fill-opacity="0.12"/><rect x="175" y="294" width="110" height="4" rx="2" fill="#3A589E" fill-opacity="0.08"/>
  <!-- Column 2 cards -->
  <rect x="320" y="140" width="160" height="55" rx="8" fill="#0C0C1D" stroke="#4A6CB8" stroke-opacity="0.1" stroke-width="0.5"/>
  <rect x="335" y="152" width="100" height="5" rx="2.5" fill="#4A6CB8" fill-opacity="0.2"/><rect x="335" y="164" width="80" height="4" rx="2" fill="#3A589E" fill-opacity="0.1"/>
  <rect x="335" y="176" width="30" height="10" rx="5" fill="#4A6CB8" fill-opacity="0.1"/>
  <rect x="320" y="205" width="160" height="55" rx="8" fill="#0C0C1D" stroke="#4A6CB8" stroke-opacity="0.08" stroke-width="0.5"/>
  <rect x="335" y="217" width="110" height="5" rx="2.5" fill="#4A6CB8" fill-opacity="0.15"/><rect x="335" y="229" width="90" height="4" rx="2" fill="#3A589E" fill-opacity="0.08"/>
  <!-- Column 3 cards -->
  <rect x="500" y="140" width="140" height="55" rx="8" fill="#0C0C1D" stroke="#72C4B2" stroke-opacity="0.1" stroke-width="0.5"/>
  <rect x="515" y="152" width="90" height="5" rx="2.5" fill="#72C4B2" fill-opacity="0.2"/><rect x="515" y="164" width="70" height="4" rx="2" fill="#3A589E" fill-opacity="0.1"/>
  <path d="M607 155 L612 160 L622 150" stroke="#72C4B2" stroke-opacity="0.4" stroke-width="1.5" stroke-linecap="round" fill="none"/>
  <rect x="500" y="205" width="140" height="55" rx="8" fill="#0C0C1D" stroke="#72C4B2" stroke-opacity="0.08" stroke-width="0.5"/>
  <rect x="515" y="217" width="80" height="5" rx="2.5" fill="#72C4B2" fill-opacity="0.15"/><rect x="515" y="229" width="100" height="4" rx="2" fill="#3A589E" fill-opacity="0.08"/>
  <circle cx="100" cy="110" r="2" fill="#E8B84D" fill-opacity="0.2"/>
  <circle cx="720" cy="100" r="2.5" fill="#72C4B2" fill-opacity="0.15"/>
</svg>
