<svg xmlns="http://www.w3.org/2000/svg" viewBox="0 0 800 450" fill="none">
  <defs>
    <linearGradient id="bg" x1="0" y1="0" x2="800" y2="450" gradientUnits="userSpaceOnUse">
      <stop offset="0%" stop-color="#0C0C1D"/><stop offset="100%" stop-color="#111128"/>
    </linearGradient>
    <radialGradient id="glow" cx="400" cy="250" r="280" gradientUnits="userSpaceOnUse">
      <stop offset="0%" stop-color="#E8B84D" stop-opacity="0.1"/><stop offset="100%" stop-color="#E8B84D" stop-opacity="0"/>
    </radialGradient>
  </defs>
  <rect width="800" height="450" fill="url(#bg)"/><rect width="800" height="450" fill="url(#glow)"/>
  <!-- Dashboard layout -->
  <rect x="160" y="70" width="480" height="310" rx="14" fill="#161636" stroke="#E8B84D" stroke-opacity="0.12" stroke-width="1"/>
  <rect x="160" y="70" width="480" height="36" rx="14" fill="#1a1a3a"/>
  <circle cx="182" cy="88" r="4" fill="#E8916F" fill-opacity="0.5"/><circle cx="196" cy="88" r="4" fill="#E8B84D" fill-opacity="0.5"/><circle cx="210" cy="88" r="4" fill="#72C4B2" fill-opacity="0.5"/>
  <!-- KPI cards -->
  <rect x="185" y="125" width="140" height="60" rx="8" fill="#0C0C1D" stroke="#E8B84D" stroke-opacity="0.1" stroke-width="0.5"/>
  <rect x="200" y="138" width="50" height="10" rx="3" fill="#E8B84D" fill-opacity="0.3"/>
  <rect x="200" y="158" width="80" height="5" rx="2.5" fill="#E8B84D" fill-opacity="0.1"/>
  <rect x="340" y="125" width="140" height="60" rx="8" fill="#0C0C1D" stroke="#72C4B2" stroke-opacity="0.1" stroke-width="0.5"/>
  <rect x="355" y="138" width="60" height="10" rx="3" fill="#72C4B2" fill-opacity="0.3"/>
  <rect x="355" y="158" width="90" height="5" rx="2.5" fill="#72C4B2" fill-opacity="0.1"/>
  <rect x="495" y="125" width="120" height="60" rx="8" fill="#0C0C1D" stroke="#6BA3E8" stroke-opacity="0.1" stroke-width="0.5"/>
  <rect x="510" y="138" width="45" height="10" rx="3" fill="#6BA3E8" fill-opacity="0.3"/>
  <rect x="510" y="158" width="70" height="5" rx="2.5" fill="#6BA3E8" fill-opacity="0.1"/>
  <!-- Chart area -->
  <rect x="185" y="200" width="290" height="155" rx="8" fill="#0C0C1D" stroke="#E8B84D" stroke-opacity="0.06" stroke-width="0.5"/>
  <!-- Bar chart -->
  <rect x="210" y="300" width="24" height="40" rx="3" fill="#E8B84D" fill-opacity="0.2"/>
  <rect x="244" y="280" width="24" height="60" rx="3" fill="#E8B84D" fill-opacity="0.25"/>
  <rect x="278" y="270" width="24" height="70" rx="3" fill="#72C4B2" fill-opacity="0.25"/>
  <rect x="312" y="260" width="24" height="80" rx="3" fill="#72C4B2" fill-opacity="0.3"/>
  <rect x="346" y="245" width="24" height="95" rx="3" fill="#E8B84D" fill-opacity="0.3"/>
  <rect x="380" y="235" width="24" height="105" rx="3" fill="#E8B84D" fill-opacity="0.35"/>
  <rect x="414" y="250" width="24" height="90" rx="3" fill="#72C4B2" fill-opacity="0.28"/>
  <!-- Sidebar list -->
  <rect x="495" y="200" width="120" height="155" rx="8" fill="#0C0C1D" stroke="#E8B84D" stroke-opacity="0.06" stroke-width="0.5"/>
  <rect x="508" y="215" width="80" height="5" rx="2.5" fill="#E8B84D" fill-opacity="0.2"/>
  <rect x="508" y="230" width="60" height="4" rx="2" fill="#3A589E" fill-opacity="0.1"/>
  <rect x="508" y="250" width="80" height="5" rx="2.5" fill="#72C4B2" fill-opacity="0.15"/>
  <rect x="508" y="265" width="55" height="4" rx="2" fill="#3A589E" fill-opacity="0.1"/>
  <rect x="508" y="285" width="70" height="5" rx="2.5" fill="#E8B84D" fill-opacity="0.15"/>
  <rect x="508" y="300" width="90" height="4" rx="2" fill="#3A589E" fill-opacity="0.1"/>
  <circle cx="110" cy="130" r="2.5" fill="#E8B84D" fill-opacity="0.2"/>
  <circle cx="720" cy="100" r="2" fill="#72C4B2" fill-opacity="0.2"/>
</svg>
