<svg xmlns="http://www.w3.org/2000/svg" viewBox="0 0 800 450" fill="none">
  <defs>
    <linearGradient id="bg" x1="0" y1="0" x2="800" y2="450" gradientUnits="userSpaceOnUse">
      <stop offset="0%" stop-color="#0C0C1D"/><stop offset="100%" stop-color="#111128"/>
    </linearGradient>
    <radialGradient id="glow" cx="400" cy="225" r="280" gradientUnits="userSpaceOnUse">
      <stop offset="0%" stop-color="#72C4B2" stop-opacity="0.12"/><stop offset="100%" stop-color="#72C4B2" stop-opacity="0"/>
    </radialGradient>
  </defs>
  <rect width="800" height="450" fill="url(#bg)"/><rect width="800" height="450" fill="url(#glow)"/>
  <!-- Email/inbox interface -->
  <rect x="180" y="80" width="440" height="290" rx="12" fill="#161636" stroke="#72C4B2" stroke-opacity="0.15" stroke-width="1"/>
  <rect x="180" y="80" width="120" height="290" rx="12" fill="#1a1a3a"/>
  <!-- Sidebar items -->
  <rect x="195" y="110" width="85" height="8" rx="4" fill="#72C4B2" fill-opacity="0.25"/>
  <rect x="195" y="135" width="70" height="6" rx="3" fill="#3A589E" fill-opacity="0.15"/>
  <rect x="195" y="155" width="75" height="6" rx="3" fill="#3A589E" fill-opacity="0.12"/>
  <rect x="195" y="175" width="60" height="6" rx="3" fill="#3A589E" fill-opacity="0.1"/>
  <rect x="195" y="195" width="80" height="6" rx="3" fill="#3A589E" fill-opacity="0.1"/>
  <!-- Email list -->
  <rect x="315" y="95" width="290" height="45" rx="6" fill="#0C0C1D" stroke="#72C4B2" stroke-opacity="0.1" stroke-width="0.5"/>
  <circle cx="335" cy="117" r="10" fill="#72C4B2" fill-opacity="0.15"/>
  <rect x="355" y="107" width="100" height="6" rx="3" fill="#72C4B2" fill-opacity="0.25"/>
  <rect x="355" y="120" width="160" height="5" rx="2.5" fill="#3A589E" fill-opacity="0.12"/>
  <rect x="315" y="148" width="290" height="45" rx="6" fill="#0C0C1D"/>
  <circle cx="335" cy="170" r="10" fill="#3A589E" fill-opacity="0.12"/>
  <rect x="355" y="160" width="120" height="6" rx="3" fill="#3A589E" fill-opacity="0.15"/>
  <rect x="355" y="173" width="180" height="5" rx="2.5" fill="#3A589E" fill-opacity="0.08"/>
  <rect x="315" y="201" width="290" height="45" rx="6" fill="#0C0C1D"/>
  <circle cx="335" cy="223" r="10" fill="#7B6FE8" fill-opacity="0.12"/>
  <rect x="355" y="213" width="140" height="6" rx="3" fill="#7B6FE8" fill-opacity="0.15"/>
  <rect x="355" y="226" width="150" height="5" rx="2.5" fill="#3A589E" fill-opacity="0.08"/>
  <rect x="315" y="254" width="290" height="45" rx="6" fill="#0C0C1D"/>
  <circle cx="335" cy="276" r="10" fill="#E8B84D" fill-opacity="0.12"/>
  <rect x="355" y="266" width="110" height="6" rx="3" fill="#E8B84D" fill-opacity="0.15"/>
  <rect x="355" y="279" width="170" height="5" rx="2.5" fill="#3A589E" fill-opacity="0.08"/>
  <!-- AI processing indicator -->
  <rect x="315" y="310" width="290" height="45" rx="6" fill="#72C4B2" fill-opacity="0.04" stroke="#72C4B2" stroke-opacity="0.12" stroke-width="0.5"/>
  <rect x="330" y="325" width="60" height="5" rx="2.5" fill="#72C4B2" fill-opacity="0.3"/>
  <rect x="330" y="336" width="200" height="4" rx="2" fill="#72C4B2" fill-opacity="0.12"/>
  <circle cx="120" cy="130" r="2.5" fill="#72C4B2" fill-opacity="0.2"/>
  <circle cx="700" cy="120" r="2" fill="#3A589E" fill-opacity="0.25"/>
</svg>
