<svg xmlns="http://www.w3.org/2000/svg" viewBox="0 0 800 450" fill="none">
  <defs>
    <linearGradient id="bg" x1="0" y1="0" x2="800" y2="450" gradientUnits="userSpaceOnUse">
      <stop offset="0%" stop-color="#0C0C1D"/><stop offset="100%" stop-color="#111128"/>
    </linearGradient>
    <radialGradient id="glow" cx="400" cy="225" r="300" gradientUnits="userSpaceOnUse">
      <stop offset="0%" stop-color="#6BA3E8" stop-opacity="0.1"/><stop offset="100%" stop-color="#6BA3E8" stop-opacity="0"/>
    </radialGradient>
  </defs>
  <rect width="800" height="450" fill="url(#bg)"/><rect width="800" height="450" fill="url(#glow)"/>
  <!-- 13 AI agent nodes in a network -->
  <!-- Central orchestrator -->
  <circle cx="400" cy="225" r="30" fill="#161636" stroke="#6BA3E8" stroke-opacity="0.5" stroke-width="2"/>
  <circle cx="400" cy="225" r="14" fill="#6BA3E8" fill-opacity="0.12"/>
  <circle cx="400" cy="225" r="5" fill="#6BA3E8" fill-opacity="0.4"/>
  <!-- Ring 1 agents -->
  <circle cx="320" cy="160" r="16" fill="#161636" stroke="#72C4B2" stroke-opacity="0.35" stroke-width="1"/><circle cx="320" cy="160" r="5" fill="#72C4B2" fill-opacity="0.2"/>
  <circle cx="480" cy="160" r="16" fill="#161636" stroke="#6BA3E8" stroke-opacity="0.35" stroke-width="1"/><circle cx="480" cy="160" r="5" fill="#6BA3E8" fill-opacity="0.2"/>
  <circle cx="320" cy="290" r="16" fill="#161636" stroke="#6BA3E8" stroke-opacity="0.35" stroke-width="1"/><circle cx="320" cy="290" r="5" fill="#6BA3E8" fill-opacity="0.2"/>
  <circle cx="480" cy="290" r="16" fill="#161636" stroke="#72C4B2" stroke-opacity="0.35" stroke-width="1"/><circle cx="480" cy="290" r="5" fill="#72C4B2" fill-opacity="0.2"/>
  <circle cx="280" cy="225" r="16" fill="#161636" stroke="#7B6FE8" stroke-opacity="0.35" stroke-width="1"/><circle cx="280" cy="225" r="5" fill="#7B6FE8" fill-opacity="0.2"/>
  <circle cx="520" cy="225" r="16" fill="#161636" stroke="#7B6FE8" stroke-opacity="0.35" stroke-width="1"/><circle cx="520" cy="225" r="5" fill="#7B6FE8" fill-opacity="0.2"/>
  <!-- Ring 2 agents -->
  <circle cx="220" cy="130" r="12" fill="#161636" stroke="#6BA3E8" stroke-opacity="0.2" stroke-width="1"/>
  <circle cx="580" cy="130" r="12" fill="#161636" stroke="#72C4B2" stroke-opacity="0.2" stroke-width="1"/>
  <circle cx="200" cy="300" r="12" fill="#161636" stroke="#72C4B2" stroke-opacity="0.2" stroke-width="1"/>
  <circle cx="600" cy="300" r="12" fill="#161636" stroke="#6BA3E8" stroke-opacity="0.2" stroke-width="1"/>
  <circle cx="400" cy="100" r="12" fill="#161636" stroke="#E8B84D" stroke-opacity="0.25" stroke-width="1"/>
  <circle cx="400" cy="350" r="12" fill="#161636" stroke="#E8B84D" stroke-opacity="0.25" stroke-width="1"/>
  <circle cx="540" cy="340" r="12" fill="#161636" stroke="#E8916F" stroke-opacity="0.2" stroke-width="1"/>
  <!-- Connections -->
  <g stroke-opacity="0.08" stroke-width="0.8">
    <line x1="370" y1="210" x2="336" y2="172" stroke="#72C4B2"/>
    <line x1="430" y1="210" x2="464" y2="172" stroke="#6BA3E8"/>
    <line x1="370" y1="240" x2="336" y2="278" stroke="#6BA3E8"/>
    <line x1="430" y1="240" x2="464" y2="278" stroke="#72C4B2"/>
    <line x1="370" y1="225" x2="296" y2="225" stroke="#7B6FE8"/>
    <line x1="430" y1="225" x2="504" y2="225" stroke="#7B6FE8"/>
    <line x1="306" y1="152" x2="232" y2="134" stroke="#6BA3E8"/>
    <line x1="494" y1="152" x2="568" y2="134" stroke="#72C4B2"/>
    <line x1="306" y1="298" x2="212" y2="300" stroke="#72C4B2"/>
    <line x1="494" y1="298" x2="588" y2="300" stroke="#6BA3E8"/>
    <line x1="400" y1="195" x2="400" y2="112" stroke="#E8B84D"/>
    <line x1="400" y1="255" x2="400" y2="338" stroke="#E8B84D"/>
    <line x1="494" y1="298" x2="530" y2="332" stroke="#E8916F"/>
  </g>
  <circle cx="120" cy="90" r="2" fill="#6BA3E8" fill-opacity="0.2"/>
  <circle cx="700" cy="80" r="2.5" fill="#72C4B2" fill-opacity="0.15"/>
</svg>
