<svg xmlns="http://www.w3.org/2000/svg" viewBox="0 0 800 450" fill="none">
  <defs>
    <linearGradient id="bg" x1="0" y1="0" x2="800" y2="450" gradientUnits="userSpaceOnUse">
      <stop offset="0%" stop-color="#0C0C1D"/>
      <stop offset="100%" stop-color="#111128"/>
    </linearGradient>
    <radialGradient id="glow" cx="400" cy="200" r="280" gradientUnits="userSpaceOnUse">
      <stop offset="0%" stop-color="#5BB5E0" stop-opacity="0.12"/>
      <stop offset="100%" stop-color="#5BB5E0" stop-opacity="0"/>
    </radialGradient>
  </defs>
  <rect width="800" height="450" fill="url(#bg)"/>
  <rect width="800" height="450" fill="url(#glow)"/>
  <!-- Cloud shape -->
  <path d="M280 240 Q280 180 340 170 Q350 120 420 120 Q490 120 500 170 Q560 170 560 220 Q560 260 520 270 L320 270 Q280 270 280 240 Z" fill="#161636" stroke="#5BB5E0" stroke-opacity="0.25" stroke-width="1.5"/>
  <path d="M280 240 Q280 180 340 170 Q350 120 420 120 Q490 120 500 170 Q560 170 560 220 Q560 260 520 270 L320 270 Q280 270 280 240 Z" fill="#5BB5E0" fill-opacity="0.03"/>
  <!-- Server stacks inside cloud -->
  <rect x="340" y="175" width="160" height="20" rx="4" fill="#0C0C1D" stroke="#5BB5E0" stroke-opacity="0.15" stroke-width="0.5"/>
  <circle cx="355" cy="185" r="3" fill="#72C4B2" fill-opacity="0.5"/>
  <circle cx="367" cy="185" r="3" fill="#5BB5E0" fill-opacity="0.3"/>
  <rect x="380" y="182" width="60" height="4" rx="2" fill="#5BB5E0" fill-opacity="0.1"/>
  <rect x="340" y="200" width="160" height="20" rx="4" fill="#0C0C1D" stroke="#5BB5E0" stroke-opacity="0.15" stroke-width="0.5"/>
  <circle cx="355" cy="210" r="3" fill="#5BB5E0" fill-opacity="0.4"/>
  <circle cx="367" cy="210" r="3" fill="#72C4B2" fill-opacity="0.4"/>
  <rect x="380" y="207" width="80" height="4" rx="2" fill="#5BB5E0" fill-opacity="0.1"/>
  <rect x="340" y="225" width="160" height="20" rx="4" fill="#0C0C1D" stroke="#5BB5E0" stroke-opacity="0.15" stroke-width="0.5"/>
  <circle cx="355" cy="235" r="3" fill="#72C4B2" fill-opacity="0.5"/>
  <circle cx="367" cy="235" r="3" fill="#5BB5E0" fill-opacity="0.35"/>
  <rect x="380" y="232" width="50" height="4" rx="2" fill="#5BB5E0" fill-opacity="0.1"/>
  <!-- Upload/download arrows -->
  <line x1="360" y1="270" x2="360" y2="340" stroke="#5BB5E0" stroke-opacity="0.12" stroke-width="1.5"/>
  <path d="M354 330 L360 342 L366 330" stroke="#5BB5E0" stroke-opacity="0.2" stroke-width="1.5" fill="none" stroke-linecap="round"/>
  <line x1="440" y1="340" x2="440" y2="270" stroke="#72C4B2" stroke-opacity="0.12" stroke-width="1.5"/>
  <path d="M434 280 L440 268 L446 280" stroke="#72C4B2" stroke-opacity="0.2" stroke-width="1.5" fill="none" stroke-linecap="round"/>
  <!-- Connected devices below -->
  <rect x="310" y="350" width="60" height="40" rx="6" fill="#161636" stroke="#5BB5E0" stroke-opacity="0.15" stroke-width="0.5"/>
  <rect x="320" y="362" width="30" height="4" rx="2" fill="#5BB5E0" fill-opacity="0.15"/>
  <rect x="320" y="372" width="40" height="3" rx="1.5" fill="#72C4B2" fill-opacity="0.1"/>
  <rect x="430" y="350" width="60" height="40" rx="6" fill="#161636" stroke="#5BB5E0" stroke-opacity="0.15" stroke-width="0.5"/>
  <rect x="440" y="362" width="35" height="4" rx="2" fill="#5BB5E0" fill-opacity="0.15"/>
  <rect x="440" y="372" width="25" height="3" rx="1.5" fill="#72C4B2" fill-opacity="0.1"/>
  <!-- Stacked lines + arrow (cloud logo modifier) -->
  <g opacity="0.12" transform="translate(620, 140)">
    <line x1="0" y1="0" x2="40" y2="0" stroke="#5BB5E0" stroke-width="2" stroke-linecap="round"/>
    <line x1="0" y1="12" x2="40" y2="12" stroke="#5BB5E0" stroke-width="2" stroke-linecap="round"/>
    <line x1="0" y1="24" x2="40" y2="24" stroke="#5BB5E0" stroke-width="2" stroke-linecap="round"/>
    <path d="M50 12 L60 0 L60 24 Z" fill="#5BB5E0"/>
  </g>
  <!-- Floating -->
  <circle cx="130" cy="100" r="2.5" fill="#5BB5E0" fill-opacity="0.2"/>
  <circle cx="700" cy="80" r="2" fill="#72C4B2" fill-opacity="0.2"/>
  <circle cx="100" cy="400" r="3" fill="#5BB5E0" fill-opacity="0.15"/>
  <circle cx="730" cy="400" r="2.5" fill="#72C4B2" fill-opacity="0.15"/>
</svg>
