<svg xmlns="http://www.w3.org/2000/svg" viewBox="0 0 800 450" fill="none">
  <defs>
    <linearGradient id="bg" x1="0" y1="0" x2="800" y2="450" gradientUnits="userSpaceOnUse">
      <stop offset="0%" stop-color="#0C0C1D"/>
      <stop offset="100%" stop-color="#111128"/>
    </linearGradient>
    <radialGradient id="glow" cx="400" cy="220" r="280" gradientUnits="userSpaceOnUse">
      <stop offset="0%" stop-color="#E8916F" stop-opacity="0.1"/>
      <stop offset="100%" stop-color="#E8916F" stop-opacity="0"/>
    </radialGradient>
  </defs>
  <rect width="800" height="450" fill="url(#bg)"/>
  <rect width="800" height="450" fill="url(#glow)"/>
  <!-- Project dashboard -->
  <rect x="160" y="70" width="480" height="310" rx="14" fill="#161636" stroke="#E8916F" stroke-opacity="0.15" stroke-width="1"/>
  <!-- Header bar -->
  <rect x="160" y="70" width="480" height="40" rx="14" fill="#1a1a3a"/>
  <circle cx="185" cy="90" r="4" fill="#E8916F" fill-opacity="0.5"/>
  <circle cx="199" cy="90" r="4" fill="#E8B84D" fill-opacity="0.5"/>
  <circle cx="213" cy="90" r="4" fill="#72C4B2" fill-opacity="0.5"/>
  <rect x="250" y="85" width="100" height="8" rx="4" fill="#E8916F" fill-opacity="0.15"/>
  <!-- Metrics row -->
  <rect x="185" y="130" width="130" height="65" rx="8" fill="#0C0C1D" stroke="#E8916F" stroke-opacity="0.1" stroke-width="0.5"/>
  <rect x="335" y="130" width="130" height="65" rx="8" fill="#0C0C1D" stroke="#72C4B2" stroke-opacity="0.1" stroke-width="0.5"/>
  <rect x="485" y="130" width="130" height="65" rx="8" fill="#0C0C1D" stroke="#E8B84D" stroke-opacity="0.1" stroke-width="0.5"/>
  <!-- Metric values -->
  <rect x="200" y="145" width="40" height="12" rx="3" fill="#E8916F" fill-opacity="0.35"/>
  <rect x="200" y="165" width="80" height="5" rx="2.5" fill="#E8916F" fill-opacity="0.12"/>
  <rect x="350" y="145" width="50" height="12" rx="3" fill="#72C4B2" fill-opacity="0.35"/>
  <rect x="350" y="165" width="70" height="5" rx="2.5" fill="#72C4B2" fill-opacity="0.12"/>
  <rect x="500" y="145" width="35" height="12" rx="3" fill="#E8B84D" fill-opacity="0.35"/>
  <rect x="500" y="165" width="90" height="5" rx="2.5" fill="#E8B84D" fill-opacity="0.12"/>
  <!-- Timeline / progress bars -->
  <rect x="185" y="215" width="430" height="8" rx="4" fill="#0C0C1D"/>
  <rect x="185" y="215" width="320" height="8" rx="4" fill="#E8916F" fill-opacity="0.3"/>
  <rect x="185" y="240" width="430" height="8" rx="4" fill="#0C0C1D"/>
  <rect x="185" y="240" width="380" height="8" rx="4" fill="#72C4B2" fill-opacity="0.25"/>
  <rect x="185" y="265" width="430" height="8" rx="4" fill="#0C0C1D"/>
  <rect x="185" y="265" width="260" height="8" rx="4" fill="#E8B84D" fill-opacity="0.25"/>
  <!-- Status indicators -->
  <circle cx="195" cy="300" r="4" fill="#72C4B2" fill-opacity="0.5"/>
  <rect x="208" y="297" width="60" height="5" rx="2.5" fill="#72C4B2" fill-opacity="0.15"/>
  <circle cx="295" cy="300" r="4" fill="#E8916F" fill-opacity="0.5"/>
  <rect x="308" y="297" width="50" height="5" rx="2.5" fill="#E8916F" fill-opacity="0.15"/>
  <circle cx="385" cy="300" r="4" fill="#E8B84D" fill-opacity="0.5"/>
  <rect x="398" y="297" width="45" height="5" rx="2.5" fill="#E8B84D" fill-opacity="0.15"/>
  <!-- Mini bar chart -->
  <rect x="185" y="325" width="20" height="30" rx="3" fill="#E8916F" fill-opacity="0.25"/>
  <rect x="212" y="315" width="20" height="40" rx="3" fill="#E8916F" fill-opacity="0.3"/>
  <rect x="239" y="320" width="20" height="35" rx="3" fill="#72C4B2" fill-opacity="0.25"/>
  <rect x="266" y="305" width="20" height="50" rx="3" fill="#72C4B2" fill-opacity="0.35"/>
  <rect x="293" y="310" width="20" height="45" rx="3" fill="#E8916F" fill-opacity="0.3"/>
  <!-- Floating -->
  <circle cx="100" cy="120" r="2.5" fill="#E8916F" fill-opacity="0.25"/>
  <circle cx="720" cy="150" r="3" fill="#72C4B2" fill-opacity="0.2"/>
  <circle cx="90" cy="380" r="2" fill="#E8916F" fill-opacity="0.2"/>
  <circle cx="730" cy="350" r="2.5" fill="#E8B84D" fill-opacity="0.2"/>
</svg>
